<svg width="128" height="123" viewBox="0 0 128 123" fill="none" xmlns="http://www.w3.org/2000/svg">
    <path fill-rule="evenodd" clip-rule="evenodd" d="M63.5 115C93.0472 115 117 91.0472 117 61.5C117 31.9528 93.0472 8 63.5 8C33.9528 8 10 31.9528 10 61.5C10 91.0472 33.9528 115 63.5 115ZM63.5 123C97.4655 123 125 95.4655 125 61.5C125 27.5345 97.4655 0 63.5 0C29.5345 0 2 27.5345 2 61.5C2 95.4655 29.5345 123 63.5 123Z" fill="black"/>
    <path d="M7.60376 89H8.60376V88V70.0946C8.60376 67.0342 9.5984 64.4773 11.583 62.3635C13.6063 60.2085 15.9985 59.1577 18.8113 59.1577C21.6235 59.1577 23.9938 60.2078 25.9777 62.3573L25.9835 62.3636L25.9894 62.3697C28.0091 64.4844 29.0188 67.0394 29.0188 70.0946V88V89H30.0188H35.6226H36.6226V88V70.0946C36.6226 67.0342 37.6172 64.4773 39.6018 62.3635C41.6251 60.2085 44.0173 59.1577 46.8301 59.1577C49.6423 59.1577 52.0126 60.2078 53.9965 62.3573L54.0023 62.3636L54.0082 62.3697C56.0279 64.4844 57.0376 67.0394 57.0376 70.0946V88V89H58.0376H63.6414H64.2552H64.6414H65.2552H70.859H71.859V88V71.7467V71.3811H75.4714V88V89H76.4714H82.0751H83.0751V88V71.3811H91.414C91.6803 76.0175 93.4032 80.049 96.5797 83.4322C100.048 87.1267 104.269 89 109.189 89C113.028 89 116.44 87.859 119.396 85.5941V88V89H120.396H126H127V88V70.0946C127 64.914 125.265 60.4494 121.798 56.757C118.771 53.5333 115.172 51.6962 111.035 51.2803C110.706 46.7859 108.991 42.8684 105.892 39.5678C102.423 35.8733 98.2025 34 93.2827 34C88.3628 34 84.1424 35.8733 80.6737 39.5678C77.2069 43.2602 75.4714 47.7248 75.4714 52.9054V63.4126H71.859V63.1139V57.1454V56.1454H70.859H65.2552H64.2552V57.1454V63.1139V64.1139H64.2639V64.4126V66.0661C63.5811 62.5654 61.9723 59.455 59.4391 56.757C55.9704 53.0625 51.7499 51.1892 46.8301 51.1892C41.9102 51.1892 37.6898 53.0625 34.2211 56.757C33.7153 57.2957 33.2483 57.8505 32.8207 58.4214C32.3931 57.8505 31.9261 57.2957 31.4203 56.757C27.9516 53.0625 23.7311 51.1892 18.8113 51.1892C13.8914 51.1892 9.67099 53.0625 6.20228 56.757C2.73547 60.4494 1 64.914 1 70.0946V88V89H2H7.60376ZM92.4762 63.4126H83.0751V52.9054C83.0751 49.845 84.0698 47.2881 86.0544 45.1743C88.0777 43.0193 90.4698 41.9685 93.2827 41.9685C96.0949 41.9685 98.4651 43.0186 100.449 45.1681L100.455 45.1744L100.461 45.1805C102.309 47.116 103.312 49.4202 103.468 52.1392C100.919 53.0416 98.6195 54.5844 96.5797 56.757C94.7058 58.7529 93.3377 60.9744 92.4762 63.4126ZM116.355 62.3573L116.361 62.3636L116.367 62.3697C118.387 64.4844 119.396 67.0394 119.396 70.0946C119.396 73.15 118.386 75.7283 116.361 77.8853C114.379 79.9966 112.007 81.0315 109.189 81.0315C106.373 81.0315 103.981 79.9979 101.961 77.8854C99.9743 75.7306 98.9812 73.1522 98.9812 70.0946C98.9812 67.0342 99.9758 64.4773 101.96 62.3635C103.984 60.2085 106.376 59.1577 109.189 59.1577C112.001 59.1577 114.371 60.2078 116.355 62.3573Z" fill="black" stroke="white" stroke-width="2"/>
</svg>
