<svg width="23" height="21" viewBox="0 0 23 21" fill="none" xmlns="http://www.w3.org/2000/svg">
<path d="M6.54537 8.61253L21.0889 8.61253C21.6304 8.61253 22.0843 8.79341 22.4506 9.15518C22.8169 9.51694 23 9.96522 23 10.5C23 11.0348 22.8169 11.4831 22.4506 11.8448C22.0843 12.2066 21.6304 12.3875 21.0889 12.3875L6.54537 12.3875L11.9919 17.7668C12.3741 18.1443 12.5572 18.5847 12.5413 19.088C12.5254 19.5913 12.3422 20.0317 11.9919 20.4092C11.6097 20.7867 11.1558 20.9833 10.6303 20.9991C10.1047 21.0148 9.65083 20.8339 9.26862 20.4564L0.52554 11.8212C0.334434 11.6325 0.199066 11.428 0.119439 11.2078C0.0398117 10.9876 -7.72992e-07 10.7517 -7.50991e-07 10.5C-7.2899e-07 10.2483 0.0398118 10.0124 0.119439 9.7922C0.199067 9.57199 0.334434 9.36752 0.52554 9.17877L9.26862 0.543592C9.65084 0.166098 10.1047 -0.0147856 10.6303 0.000943354C11.1558 0.0166723 11.6097 0.213284 11.9919 0.590778C12.3422 0.968273 12.5254 1.40868 12.5413 1.91201C12.5572 2.41533 12.3741 2.85574 11.9919 3.23324L6.54537 8.61253Z" fill="black"/>
</svg>
