<svg width="23" height="21" viewBox="0 0 23 21" fill="none" xmlns="http://www.w3.org/2000/svg">
<path d="M16.4546 12.3875L1.91105 12.3875C1.36959 12.3875 0.915712 12.2066 0.549426 11.8448C0.183141 11.4831 -1.92938e-06 11.0348 -1.83588e-06 10.5C-1.74237e-06 9.96522 0.183141 9.51694 0.549427 9.15518C0.915713 8.79341 1.36959 8.61253 1.91106 8.61253L16.4546 8.61253L11.0081 3.23324C10.6259 2.85574 10.4428 2.41534 10.4587 1.91201C10.4746 1.40868 10.6578 0.968274 11.0081 0.59078C11.3903 0.213286 11.8442 0.0166747 12.3697 0.000945898C12.8953 -0.0147829 13.3492 0.1661 13.7314 0.543594L22.4745 9.17877C22.6656 9.36752 22.8009 9.572 22.8806 9.7922C22.9602 10.0124 23 10.2483 23 10.5C23 10.7517 22.9602 10.9876 22.8806 11.2078C22.8009 11.428 22.6656 11.6325 22.4745 11.8212L13.7314 20.4564C13.3492 20.8339 12.8953 21.0148 12.3697 20.9991C11.8442 20.9833 11.3903 20.7867 11.0081 20.4092C10.6578 20.0317 10.4746 19.5913 10.4587 19.088C10.4428 18.5847 10.6259 18.1443 11.0081 17.7668L16.4546 12.3875Z" fill="black"/>
</svg>
