<svg width="113" height="110" viewBox="0 0 113 110" fill="none" xmlns="http://www.w3.org/2000/svg">
<path d="M102.384 59.0401C102.477 58.5144 102.648 58.0276 102.896 57.58C103.145 57.1323 103.449 56.7578 103.807 56.4565C104.166 56.1551 104.554 55.9562 104.97 55.8596C105.157 55.8078 105.318 55.8359 105.452 55.944C105.584 56.0603 105.653 56.2248 105.658 56.4374C105.665 56.591 105.615 56.7305 105.508 56.8557C105.408 56.9906 105.273 57.0813 105.103 57.1279C104.88 57.1904 104.662 57.3175 104.45 57.509C104.237 57.7087 104.048 57.9594 103.885 58.2611C103.721 58.5628 103.608 58.8902 103.546 59.2435C103.477 59.6378 103.475 60.0101 103.541 60.3604C103.605 60.7188 103.734 61.021 103.929 61.2667C104.132 61.5139 104.406 61.6678 104.752 61.7284C105.189 61.8048 105.61 61.7008 106.017 61.4163C106.422 61.14 106.735 60.6189 106.955 59.8528C107.233 58.8514 107.675 58.103 108.28 57.6077C108.885 57.1124 109.558 56.9296 110.3 57.0594C110.844 57.1546 111.278 57.3873 111.604 57.7576C111.929 58.1279 112.145 58.5892 112.252 59.1413C112.357 59.7018 112.353 60.3024 112.241 60.9432C112.152 61.4443 112.006 61.8675 111.8 62.2127C111.594 62.5661 111.342 62.8608 111.046 63.0969C110.75 63.3329 110.415 63.5241 110.041 63.6703C109.839 63.7536 109.658 63.7685 109.498 63.715C109.344 63.6712 109.234 63.5715 109.168 63.416C109.097 63.2426 109.106 63.0706 109.195 62.8999C109.285 62.7293 109.416 62.6125 109.588 62.5495C109.85 62.4599 110.08 62.335 110.278 62.1749C110.476 62.0148 110.643 61.8153 110.779 61.5765C110.922 61.3391 111.025 61.0479 111.085 60.7029C111.201 60.0964 111.175 59.5668 111.008 59.1142C110.85 58.6631 110.528 58.3949 110.042 58.3099C109.794 58.2666 109.545 58.2864 109.292 58.3692C109.047 58.4618 108.812 58.662 108.588 58.97C108.362 59.2862 108.16 59.759 107.981 60.3882C107.711 61.3486 107.276 62.0559 106.678 62.5101C106.087 62.974 105.383 63.1346 104.568 62.9918C104.098 62.9096 103.708 62.7397 103.396 62.4819C103.084 62.2324 102.837 61.9224 102.656 61.552C102.481 61.1912 102.373 60.7912 102.332 60.3521C102.289 59.9211 102.306 59.4838 102.384 59.0401Z" fill="black"/>
<path d="M101.014 66.9325C101.138 66.534 101.349 66.2062 101.647 65.9489C101.954 65.6942 102.311 65.5293 102.72 65.4544C103.128 65.3795 103.552 65.4097 103.992 65.5451L109.71 67.307C109.886 67.3612 110.012 67.4613 110.09 67.6074C110.167 67.7534 110.178 67.9141 110.124 68.0894C110.07 68.2647 109.969 68.391 109.823 68.468C109.676 68.5451 109.515 68.5566 109.34 68.5024L103.621 66.7405C103.302 66.642 103.007 66.6472 102.737 66.756C102.467 66.8649 102.292 67.0468 102.213 67.3018L102.087 67.7083C102.043 67.8517 101.95 67.954 101.808 68.0152C101.664 68.0843 101.504 68.0918 101.328 68.0376C101.153 67.9834 101.03 67.8714 100.96 67.7014C100.887 67.5394 100.883 67.3548 100.947 67.1476L101.014 66.9325ZM107.123 65.9076C107.175 65.7402 107.265 65.6195 107.393 65.5455C107.521 65.4714 107.657 65.4566 107.801 65.5009C107.961 65.5501 108.072 65.6413 108.136 65.7745C108.2 65.9076 108.206 66.0579 108.154 66.2253L107.298 68.9866C107.247 69.154 107.157 69.2747 107.029 69.3487C106.901 69.4228 106.757 69.4352 106.597 69.3859C106.453 69.3416 106.349 69.2529 106.285 69.1197C106.222 68.9866 106.216 68.8363 106.267 68.669L107.123 65.9076Z" fill="black"/>
<path d="M99.4657 72.1174C99.7455 71.5761 100.13 71.1593 100.62 70.8668C101.118 70.5782 101.662 70.4263 102.253 70.4112C102.848 70.4073 103.439 70.5563 104.027 70.8582C104.614 71.1601 105.073 71.5649 105.403 72.0725C105.73 72.5876 105.908 73.1438 105.938 73.741C105.972 74.3495 105.839 74.9429 105.54 75.5212C105.242 76.0995 104.836 76.5478 104.323 76.8661C103.818 77.1882 103.262 77.3623 102.656 77.3885C102.045 77.4221 101.447 77.2879 100.859 76.986L101.083 76.5523C100.496 76.2504 100.033 75.853 99.6951 75.3601C99.3606 74.8785 99.167 74.352 99.1141 73.7806C99.0687 73.213 99.1859 72.6586 99.4657 72.1174ZM100.354 72.8557C100.159 73.2338 100.074 73.617 100.099 74.0053C100.132 74.3974 100.26 74.759 100.484 75.09C100.716 75.4249 101.028 75.6936 101.423 75.8961C101.824 76.1025 102.225 76.2006 102.625 76.1906C103.033 76.1844 103.403 76.0789 103.735 75.874C104.074 75.673 104.341 75.3834 104.537 75.0053C104.728 74.6346 104.81 74.2495 104.781 73.85C104.756 73.4617 104.629 73.0964 104.402 72.7542C104.178 72.4231 103.865 72.1544 103.463 71.9481C103.069 71.7455 102.668 71.6473 102.26 71.6535C101.856 71.671 101.484 71.7802 101.145 71.9812C100.81 72.1935 100.546 72.485 100.354 72.8557ZM98.0965 74.8481C98.1808 74.685 98.3038 74.5746 98.4653 74.5169C98.6305 74.4704 98.7949 74.4892 98.9585 74.5733L100.665 75.4504L101.738 76.2693L100.859 76.986L98.3721 75.7077C98.2085 75.6236 98.0997 75.4973 98.0457 75.3288C97.9953 75.1715 98.0122 75.0113 98.0965 74.8481Z" fill="black"/>
<path d="M100.497 79.9176C100.91 80.2007 101.211 80.5529 101.398 80.9741C101.587 81.407 101.66 81.8614 101.616 82.3374C101.573 82.8134 101.409 83.2578 101.125 83.6705C100.841 84.0832 100.562 84.3421 100.287 84.4472C100.014 84.5639 99.8007 84.5345 99.6475 84.359C99.5652 84.2723 99.5177 84.1791 99.5051 84.0794C99.4947 83.9914 99.5086 83.9048 99.5468 83.8197C99.5851 83.7346 99.6453 83.6544 99.7275 83.5792C100.12 83.2003 100.399 82.8095 100.564 82.4068C100.73 82.0041 100.78 81.6288 100.715 81.2809C100.645 80.9399 100.452 80.6609 100.135 80.4438L100.497 79.9176ZM96.9509 77.5074C97.0645 77.3423 97.1934 77.2434 97.3377 77.2106C97.4889 77.1825 97.6507 77.2275 97.8231 77.3454L102.448 80.5091C102.614 80.6223 102.71 80.7543 102.739 80.9051C102.767 81.0558 102.724 81.2138 102.611 81.3788C102.492 81.5508 102.36 81.6474 102.213 81.6686C102.069 81.7014 101.911 81.6588 101.738 81.5408L97.1134 78.3772C96.9478 78.2639 96.851 78.1319 96.8228 77.9812C96.7899 77.8373 96.8326 77.6794 96.9509 77.5074Z" fill="black"/>
<path d="M92.263 84.1319C92.5405 83.8198 92.8684 83.6081 93.2469 83.4968C93.6316 83.391 94.0254 83.388 94.4285 83.488C94.8315 83.5879 95.2051 83.79 95.5494 84.0943L100.028 88.0534C100.166 88.1752 100.239 88.3185 100.249 88.4833C100.259 88.6482 100.203 88.7992 100.081 88.9365C99.959 89.0739 99.8153 89.1475 99.65 89.1574C99.4847 89.1673 99.3332 89.1114 99.1955 88.9897L94.717 85.0306C94.4667 84.8092 94.196 84.6925 93.9049 84.6804C93.6138 84.6683 93.3795 84.7622 93.2019 84.9619L92.9189 85.2802C92.819 85.3925 92.692 85.4474 92.5378 85.4449C92.378 85.4485 92.2293 85.3895 92.0916 85.2678C91.9539 85.146 91.8884 84.9934 91.8951 84.8098C91.8962 84.6325 91.9689 84.4627 92.1132 84.3004L92.263 84.1319ZM98.2513 85.7138C98.3678 85.5827 98.4997 85.5098 98.647 85.4951C98.7942 85.4803 98.9242 85.5227 99.0368 85.6223C99.162 85.733 99.2261 85.8621 99.2291 86.0097C99.232 86.1572 99.1752 86.2965 99.0587 86.4276L97.136 88.5902C97.0195 88.7213 96.8876 88.7942 96.7403 88.809C96.5931 88.8237 96.4569 88.7757 96.3317 88.6651C96.219 88.5655 96.1612 88.4419 96.1582 88.2944C96.1552 88.1468 96.212 88.0075 96.3286 87.8765L98.2513 85.7138Z" fill="black"/>
<path d="M85.3941 87.2872C85.462 87.2385 85.5581 87.2003 85.6825 87.1728C86.079 87.0939 86.3143 87.2487 86.3886 87.6373L88.3303 96.8637C88.3997 97.2455 88.2444 97.4802 87.8645 97.5678C87.4661 97.6583 87.2274 97.5059 87.1482 97.1106L85.224 87.887C85.1541 87.6186 85.2108 87.4187 85.3941 87.2872ZM86.1119 90.8104C86.2018 90.6637 86.3192 90.5692 86.4639 90.5271C86.6068 90.4965 86.7585 90.5212 86.9192 90.6012L92.439 93.3462C92.5997 93.4261 92.6978 93.5407 92.7333 93.6899C92.7669 93.8508 92.7387 94.0045 92.6488 94.1513C92.5589 94.298 92.4391 94.389 92.2894 94.4244C92.1447 94.4666 91.9954 94.4453 91.8414 94.3605L86.4236 91.5424C86.2629 91.4625 86.1487 91.3542 86.0812 91.2177C86.0117 91.0929 86.022 90.9571 86.1119 90.8104Z" fill="black"/>
<path d="M80.2949 94.6475C80.9058 94.3553 81.5084 94.229 82.1026 94.2686C82.7004 94.3157 83.2473 94.5075 83.743 94.8439C84.2349 95.1915 84.6273 95.6699 84.9204 96.2791C85.217 96.8958 85.3454 97.5004 85.3057 98.0929C85.2621 98.6966 85.0698 99.2419 84.7288 99.7287C84.3914 100.223 83.9172 100.616 83.3063 100.909C82.703 101.197 82.1024 101.318 81.5045 101.271C80.9103 101.231 80.3673 101.038 79.8754 100.69C79.3796 100.354 78.9834 99.877 78.6868 99.2603C78.3938 98.6512 78.2653 98.0465 78.3014 97.4465C78.3411 96.8539 78.5297 96.3105 78.867 95.8161C79.208 95.3292 79.684 94.9397 80.2949 94.6475ZM80.7833 95.6628C80.3911 95.8504 80.0875 96.1066 79.8727 96.4313C79.6578 96.7561 79.5434 97.1161 79.5294 97.5114C79.5078 97.9102 79.5965 98.3165 79.7955 98.7301C79.9944 99.1437 80.2566 99.467 80.582 99.6999C80.9035 99.944 81.2585 100.084 81.647 100.12C82.0355 100.157 82.4258 100.081 82.818 99.8933C83.2102 99.7057 83.5137 99.4495 83.7286 99.1247C83.9435 98.8 84.0599 98.4344 84.0778 98.028C84.0993 97.6292 84.0106 97.223 83.8117 96.8093C83.6127 96.3957 83.3505 96.0724 83.0251 95.8395C82.6997 95.6066 82.3428 95.472 81.9543 95.4358C81.5658 95.3996 81.1754 95.4753 80.7833 95.6628Z" fill="black"/>
<path d="M73.3224 98.069C73.8779 97.9126 74.4099 97.8886 74.9186 97.9967C75.4215 98.1152 75.8665 98.367 76.2536 98.752C76.6327 99.1393 76.9165 99.6661 77.1051 100.332L77.9436 103.295C77.9936 103.471 77.9781 103.632 77.8972 103.776C77.8106 103.93 77.6787 104.032 77.5016 104.082C77.3245 104.132 77.1625 104.112 77.0157 104.024C76.8632 103.945 76.7619 103.818 76.7119 103.641L75.8734 100.679C75.7462 100.23 75.556 99.8801 75.3029 99.6306C75.052 99.3892 74.7612 99.2371 74.4305 99.1741C74.1021 99.1192 73.7568 99.1428 73.3945 99.2447C73.0483 99.3422 72.7617 99.4965 72.5347 99.7078C72.2996 99.9213 72.1346 100.167 72.0394 100.445C71.9443 100.723 71.9377 101.007 72.0195 101.296L71.2587 101.51C71.1179 101.012 71.1154 100.528 71.2513 100.056C71.3792 99.5866 71.6236 99.1755 71.9843 98.8226C72.337 98.472 72.7831 98.2208 73.3224 98.069ZM70.6708 98.8803C70.8479 98.8305 71.0128 98.8447 71.1653 98.9231C71.3121 99.0118 71.4105 99.1445 71.4605 99.3211L72.9806 104.691C73.0329 104.876 73.0186 105.04 72.9377 105.185C72.8488 105.331 72.7157 105.429 72.5386 105.479C72.3535 105.531 72.1887 105.517 72.0441 105.436C71.8996 105.355 71.8012 105.223 71.749 105.038L70.2288 99.6678C70.1788 99.4912 70.1931 99.3268 70.2718 99.1746C70.3527 99.0305 70.4857 98.9324 70.6708 98.8803Z" fill="black"/>
<path d="M68.2943 104.142C68.3692 104.637 68.316 105.096 68.1347 105.52C67.9465 105.953 67.663 106.316 67.2844 106.609C66.9058 106.903 66.4683 107.086 65.972 107.161C65.4758 107.236 65.0952 107.209 64.8304 107.08C64.5586 106.96 64.4348 106.785 64.459 106.554C64.4663 106.434 64.5023 106.336 64.5667 106.259C64.6242 106.191 64.6971 106.142 64.7856 106.112C64.8741 106.082 64.974 106.071 65.0852 106.08C65.6308 106.107 66.1077 106.044 66.5158 105.89C66.9239 105.736 67.2333 105.516 67.444 105.232C67.6464 104.948 67.719 104.617 67.6616 104.237L68.2943 104.142ZM67.6421 99.9128C67.8406 99.883 68.0011 99.9094 68.1236 99.9922C68.2473 100.083 68.3248 100.232 68.3559 100.438L69.1923 105.968C69.2222 106.166 69.1915 106.327 69.1002 106.45C69.0089 106.574 68.864 106.65 68.6655 106.68C68.4587 106.711 68.2976 106.681 68.1821 106.588C68.0596 106.506 67.9828 106.361 67.9516 106.155L67.1153 100.625C67.0853 100.427 67.116 100.266 67.2073 100.143C67.2904 100.021 67.4353 99.9439 67.6421 99.9128Z" fill="black"/>
<path d="M56.3289 101.142C56.9127 101.187 57.4481 101.316 57.935 101.529C58.4129 101.75 58.7789 102.008 59.0329 102.304C59.1477 102.446 59.1904 102.6 59.1609 102.765C59.1223 102.938 59.028 103.073 58.8779 103.17C58.7008 103.29 58.534 103.332 58.3775 103.295C58.212 103.265 58.0756 103.184 57.9685 103.05C57.8389 102.881 57.6253 102.714 57.3277 102.549C57.021 102.392 56.6759 102.298 56.2922 102.269C55.8085 102.232 55.4355 102.282 55.1731 102.421C54.9023 102.559 54.7531 102.753 54.7255 103.002C54.6979 103.251 54.8021 103.476 55.0382 103.678C55.2659 103.88 55.7005 104.064 56.3421 104.23C57.1716 104.461 57.7653 104.758 58.1232 105.12C58.4728 105.481 58.629 105.903 58.5917 106.386C58.559 106.81 58.4069 107.15 58.1355 107.405C57.8634 107.668 57.5263 107.852 57.124 107.954C56.7211 108.066 56.307 108.105 55.8817 108.072C55.3312 108.03 54.8501 107.905 54.4382 107.698C54.0264 107.491 53.7072 107.224 53.4808 106.897C53.3743 106.755 53.331 106.609 53.3509 106.46C53.3702 106.319 53.4504 106.204 53.5916 106.115C53.7321 106.033 53.8928 106.016 54.0737 106.064C54.2546 106.111 54.4031 106.198 54.5192 106.324C54.7123 106.539 54.9269 106.694 55.163 106.787C55.399 106.881 55.6755 106.94 55.9924 106.964C56.3594 106.992 56.677 106.954 56.9452 106.849C57.205 106.743 57.3442 106.57 57.3629 106.329C57.3744 106.179 57.3475 106.039 57.2821 105.909C57.2077 105.786 57.0576 105.665 56.8317 105.548C56.6053 105.438 56.2704 105.321 55.8271 105.195C55.2113 105.022 54.7314 104.826 54.3876 104.607C54.0354 104.388 53.79 104.143 53.6515 103.873C53.5123 103.611 53.4555 103.314 53.4812 102.981C53.5108 102.599 53.6417 102.262 53.874 101.97C54.0979 101.678 54.4171 101.455 54.8315 101.303C55.2377 101.15 55.7368 101.097 56.3289 101.142Z" fill="black"/>
<path d="M49.1075 100.52C49.5175 100.602 49.8657 100.779 50.1523 101.049C50.4372 101.328 50.6375 101.666 50.7533 102.064C50.869 102.461 50.8813 102.885 50.7902 103.335L49.6055 109.185C49.5691 109.365 49.4819 109.5 49.344 109.592C49.206 109.683 49.0468 109.71 48.8664 109.674C48.686 109.638 48.55 109.551 48.4584 109.413C48.3668 109.276 48.3392 109.117 48.3757 108.937L49.5604 103.087C49.6266 102.76 49.5919 102.468 49.4562 102.211C49.3205 101.954 49.1215 101.799 48.8591 101.746L48.441 101.662C48.2934 101.632 48.182 101.55 48.1068 101.416C48.0234 101.28 47.9999 101.122 48.0363 100.942C48.0727 100.762 48.1722 100.629 48.3348 100.543C48.4892 100.455 48.6729 100.432 48.8861 100.475L49.1075 100.52ZM50.7425 106.478C50.9147 106.513 51.0442 106.59 51.1309 106.709C51.2176 106.829 51.2461 106.962 51.2163 107.109C51.1831 107.273 51.1034 107.393 50.9769 107.47C50.8504 107.546 50.7011 107.567 50.5289 107.533L47.6879 106.96C47.5157 106.926 47.3863 106.849 47.2996 106.729C47.2128 106.61 47.186 106.468 47.2192 106.304C47.249 106.157 47.3271 106.045 47.4535 105.969C47.58 105.892 47.7293 105.871 47.9015 105.906L50.7425 106.478Z" fill="black"/>
<path d="M43.5568 99.3971C44.1869 99.6455 44.6892 100.001 45.0639 100.462C45.4354 100.932 45.6659 101.462 45.7552 102.053C45.8337 102.649 45.7484 103.261 45.4993 103.89C45.2471 104.526 44.8895 105.031 44.4265 105.404C43.9527 105.783 43.4209 106.012 42.8309 106.094C42.2379 106.183 41.6264 106.103 40.9963 105.855C40.374 105.609 39.8771 105.252 39.5055 104.783C39.1309 104.321 38.9043 103.792 38.8258 103.196C38.7365 102.605 38.8179 101.991 39.0701 101.355C39.3193 100.727 39.6768 100.222 40.1429 99.8405C40.6058 99.4669 41.1338 99.2356 41.7268 99.1465C42.3167 99.0652 42.9267 99.1487 43.5568 99.3971ZM43.1416 100.444C42.7371 100.285 42.3424 100.237 41.9574 100.3C41.5724 100.364 41.2298 100.525 40.9295 100.783C40.6214 101.038 40.3828 101.379 40.2136 101.806C40.0445 102.232 39.9847 102.644 40.0345 103.04C40.0734 103.441 40.2115 103.796 40.4488 104.105C40.6861 104.414 41.007 104.648 41.4115 104.807C41.816 104.967 42.2108 105.015 42.5957 104.951C42.9807 104.888 43.3288 104.725 43.6399 104.462C43.948 104.207 44.1866 103.866 44.3558 103.439C44.525 103.012 44.5847 102.601 44.5349 102.205C44.4852 101.808 44.3417 101.456 44.1043 101.147C43.867 100.838 43.5461 100.604 43.1416 100.444Z" fill="black"/>
<path d="M36.1156 101.288C35.8738 101.727 35.5519 102.06 35.1499 102.287C34.7366 102.517 34.2903 102.634 33.811 102.638C33.3316 102.642 32.872 102.523 32.4322 102.282C31.9924 102.041 31.7065 101.789 31.5746 101.526C31.4312 101.267 31.4396 101.052 31.5997 100.883C31.6781 100.793 31.7664 100.737 31.8646 100.714C31.9515 100.695 32.0392 100.701 32.1279 100.73C32.2166 100.76 32.3026 100.812 32.3858 100.886C32.8025 101.238 33.22 101.476 33.6381 101.601C34.0563 101.725 34.4358 101.738 34.7766 101.64C35.11 101.537 35.3694 101.317 35.5548 100.981L36.1156 101.288ZM38.1717 97.5327C38.3477 97.6291 38.4591 97.7473 38.506 97.8873C38.5489 98.0345 38.52 98.1995 38.4193 98.3823L35.7174 103.283C35.6207 103.459 35.4985 103.568 35.3509 103.611C35.2032 103.653 35.0414 103.627 34.8655 103.53C34.6822 103.43 34.5728 103.308 34.5372 103.165C34.4903 103.025 34.5172 102.863 34.6179 102.681L37.3198 97.7795C37.4165 97.6041 37.5387 97.495 37.6863 97.4522C37.8267 97.4054 37.9885 97.4322 38.1717 97.5327Z" fill="black"/>
<path d="M34.183 92.1695C34.2496 92.2199 34.3144 92.3004 34.3774 92.4108C34.5694 92.7656 34.4901 93.0354 34.1394 93.2202L25.8651 97.7807C25.5195 97.9589 25.2489 97.8798 25.0534 97.5434C24.8496 97.1903 24.9256 96.9179 25.2813 96.7264L33.5581 92.1835C33.7948 92.038 34.0031 92.0334 34.183 92.1695ZM31.0164 93.8884C31.1835 93.931 31.3085 94.0151 31.3914 94.1407C31.4626 94.2679 31.4835 94.4198 31.4541 94.5965L30.4437 100.664C30.4142 100.841 30.3332 100.968 30.2006 101.046C30.0563 101.125 29.9006 101.143 29.7335 101.101C29.5665 101.058 29.444 100.97 29.3661 100.838C29.2832 100.713 29.2598 100.564 29.2959 100.392L30.4062 94.4004C30.4357 94.2238 30.5059 94.0832 30.6169 93.9787C30.7162 93.8759 30.8494 93.8457 31.0164 93.8884Z" fill="black"/>
<path d="M22.7184 90.6255C22.8328 90.7692 22.8831 90.9264 22.8694 91.097C22.8439 91.2662 22.759 91.4079 22.6149 91.5219L17.8969 95.2546C17.7461 95.3739 17.5885 95.424 17.424 95.4051C17.2543 95.3797 17.1122 95.2951 16.9978 95.1514C16.8783 95.0011 16.828 94.8439 16.8469 94.6798C16.8659 94.5158 16.9507 94.3741 17.1014 94.2549L21.8194 90.5222C21.9636 90.4081 22.1212 90.358 22.2923 90.3717C22.4568 90.3906 22.5989 90.4752 22.7184 90.6255ZM21.4791 85.0418C21.5935 85.1855 21.6438 85.3427 21.63 85.5133C21.6045 85.6825 21.5197 85.8242 21.3755 85.9383L18.9576 87.8513C18.5841 88.1468 18.3339 88.4564 18.2072 88.7803C18.0805 89.1042 18.055 89.4278 18.1308 89.7511C18.1948 90.0732 18.3464 90.3844 18.5855 90.685C18.8039 90.9595 19.0571 91.1637 19.3453 91.2977C19.6335 91.4318 19.9246 91.489 20.2186 91.4693C20.506 91.4548 20.771 91.3517 21.0134 91.1599L21.5047 91.7774C21.0919 92.104 20.647 92.2963 20.1699 92.3543C19.6811 92.4109 19.2039 92.3413 18.7383 92.1453C18.2728 91.9493 17.8684 91.6357 17.5253 91.2044C17.1665 90.7536 16.9451 90.2739 16.8609 89.7656C16.765 89.2558 16.8232 88.7519 17.0356 88.2539C17.2427 87.7493 17.6182 87.2818 18.1621 86.8515L20.5801 84.9385C20.7243 84.8244 20.8845 84.7776 21.0608 84.7978C21.2253 84.8167 21.3647 84.898 21.4791 85.0418ZM24.6843 89.0702C24.7987 89.2139 24.849 89.3711 24.8352 89.5417C24.8097 89.7109 24.7249 89.8526 24.5807 89.9667L20.1969 93.435C20.0462 93.5542 19.8885 93.6044 19.724 93.5855C19.5543 93.56 19.4123 93.4754 19.2979 93.3317C19.1783 93.1814 19.128 93.0242 19.1469 92.8601C19.1659 92.6961 19.2507 92.5544 19.4014 92.4352L23.7853 88.9669C23.9294 88.8529 24.087 88.8027 24.2581 88.8164C24.4226 88.8353 24.5647 88.9199 24.6843 89.0702Z" fill="black"/>
<path d="M17.9218 80.4887C18.2535 81.0969 18.4207 81.7088 18.4233 82.3246C18.4145 82.937 18.2563 83.5024 17.9486 84.0206C17.6295 84.5354 17.1724 84.9543 16.5772 85.2771C15.9747 85.6039 15.3777 85.7663 14.7862 85.7643C14.1834 85.7589 13.6315 85.6025 13.1305 85.295C12.6222 84.9915 12.2101 84.5503 11.8944 83.9715C11.5826 83.3999 11.4435 82.8392 11.4768 82.2894C11.5028 81.7436 11.682 81.2429 12.0143 80.7873C12.3353 80.3283 12.7861 79.9414 13.3666 79.6266C13.5062 79.5508 13.6497 79.5347 13.7972 79.5781C13.9373 79.6256 14.0474 79.7226 14.1273 79.8691L16.5433 84.2985L15.6616 84.7768L13.2635 80.3803L13.818 80.6636C13.4545 80.8702 13.1675 81.1208 12.9569 81.4155C12.7389 81.7141 12.6153 82.0375 12.5862 82.3856C12.5571 82.7337 12.6425 83.091 12.8423 83.4573C13.0701 83.875 13.3578 84.1842 13.7054 84.385C14.0489 84.5785 14.4243 84.6644 14.8316 84.643C15.2315 84.6255 15.6335 84.5071 16.0377 84.2879C16.4418 84.0687 16.7519 83.7818 16.968 83.4273C17.184 83.0727 17.296 82.6844 17.3038 82.2624C17.3116 81.8403 17.2017 81.4205 16.9739 81.0028C16.85 80.7757 16.6836 80.5668 16.4749 80.3761C16.2548 80.1822 16.0497 80.0418 15.8596 79.955C15.7188 79.889 15.6144 79.7936 15.5465 79.6691C15.4672 79.5412 15.442 79.4077 15.4709 79.2686C15.5131 79.0842 15.5984 78.9525 15.7267 78.8735C15.855 78.7944 16.0008 78.7912 16.1643 78.864C16.4986 79.0055 16.8301 79.2293 17.1589 79.5352C17.4836 79.8338 17.7379 80.1517 17.9218 80.4887Z" fill="black"/>
<path d="M11.2039 77.5651C10.7363 77.7467 10.2753 77.796 9.82089 77.7128C9.35569 77.625 8.93807 77.4291 8.56805 77.1252C8.19802 76.8214 7.92195 76.4363 7.73981 75.9699C7.55767 75.5036 7.50053 75.1274 7.56839 74.8415C7.62542 74.5508 7.76978 74.3918 8.00148 74.3644C8.11971 74.3454 8.22366 74.3587 8.31334 74.4045C8.39218 74.4455 8.4561 74.5057 8.50508 74.5851C8.55406 74.6646 8.58659 74.7593 8.60267 74.8695C8.69562 75.4063 8.86237 75.8562 9.10292 76.2193C9.34348 76.5824 9.62621 76.8351 9.95111 76.9775C10.273 77.1121 10.6132 77.1097 10.9717 76.9705L11.2039 77.5651ZM15.198 76.0006C15.2708 76.1871 15.2802 76.3491 15.2261 76.4864C15.1643 76.6268 15.0359 76.7349 14.841 76.8105L9.61485 78.8402C9.42779 78.9128 9.26386 78.9183 9.12307 78.8566C8.98228 78.7949 8.87545 78.6708 8.8026 78.4843C8.72671 78.2899 8.72121 78.1265 8.78612 77.9939C8.84019 77.8565 8.96465 77.75 9.15951 77.6743L14.3857 75.6447C14.5728 75.572 14.7367 75.5665 14.8775 75.6282C15.0152 75.6822 15.1221 75.8063 15.198 76.0006Z" fill="black"/>
<path d="M12.1978 68.1498C12.3336 68.8288 12.311 69.4626 12.1302 70.0514C11.9396 70.6337 11.6202 71.1267 11.1721 71.5304C10.7141 71.9276 10.1529 72.1923 9.48848 72.3244C8.81581 72.4581 8.19737 72.4365 7.63317 72.2595C7.05912 72.0759 6.57866 71.7632 6.19179 71.3212C5.79671 70.881 5.53458 70.3377 5.40538 69.6915C5.27782 69.0534 5.31181 68.4768 5.50734 67.9616C5.69467 67.4481 6.01483 67.023 6.4678 66.6863C6.91094 66.343 7.45654 66.107 8.1046 65.9782C8.26046 65.9472 8.40234 65.9743 8.53024 66.0594C8.64994 66.1462 8.72615 66.2714 8.75885 66.435L9.74744 71.3799L8.76304 71.5756L7.78182 66.6675L8.22693 67.1021C7.8184 67.1918 7.46971 67.3462 7.18086 67.5652C6.8838 67.7858 6.66955 68.0581 6.53811 68.3819C6.40667 68.7057 6.38184 69.0721 6.46361 69.4811C6.55682 69.9474 6.7395 70.3278 7.01163 70.6224C7.28213 70.9089 7.61502 71.1021 8.01031 71.2021C8.39739 71.3038 8.81652 71.3098 9.26771 71.2201C9.71889 71.1304 10.1004 70.9482 10.4123 70.6736C10.7241 70.399 10.9466 70.0613 11.0797 69.6606C11.2129 69.2599 11.2328 68.8264 11.1396 68.3602C11.0889 68.1066 10.9923 67.8579 10.8497 67.6141C10.6973 67.3637 10.5432 67.1689 10.3875 67.0298C10.2727 66.925 10.2014 66.8031 10.1736 66.664C10.136 66.5184 10.1516 66.3835 10.2206 66.2592C10.3159 66.0957 10.4365 65.9952 10.5825 65.9576C10.7285 65.9201 10.8688 65.9603 11.0032 66.0781C11.2803 66.3122 11.5303 66.624 11.7531 67.0135C11.9744 67.3947 12.1226 67.7735 12.1978 68.1498Z" fill="black"/>
<path d="M8.79269 63.3397C8.8147 63.5219 8.77092 63.6826 8.66136 63.8217C8.54249 63.9536 8.4 64.0296 8.23391 64.0495L2.0926 64.7872C1.9099 64.8092 1.74926 64.7696 1.61068 64.6687C1.47111 64.5594 1.39032 64.4137 1.36831 64.2315C1.3463 64.0493 1.39058 63.8928 1.50114 63.7619C1.61071 63.6227 1.75684 63.5421 1.93954 63.5202L8.08085 62.7825C8.25525 62.7615 8.41274 62.8098 8.55331 62.9274C8.69289 63.0366 8.77268 63.1741 8.79269 63.3397ZM11.0972 63.0629C11.1252 63.2947 11.0667 63.5076 10.9216 63.7015C10.7755 63.887 10.5821 63.9943 10.3412 64.0232C10.1004 64.0521 9.88694 63.9938 9.70084 63.8481C9.50543 63.6951 9.39372 63.5027 9.36571 63.2709C9.3367 63.0307 9.39939 62.8173 9.55378 62.6308C9.69987 62.4452 9.89333 62.3379 10.1342 62.309C10.375 62.2801 10.589 62.3426 10.7761 62.4965C10.9622 62.6422 11.0692 62.831 11.0972 63.0629Z" fill="black"/>
<path d="M10.4538 53.7025C10.3837 54.2318 10.2339 54.7252 10.0044 55.183C9.77497 55.6407 9.48742 56.0277 9.14174 56.3439C8.79606 56.6601 8.41739 56.8752 8.00571 56.9892C7.8206 57.049 7.6589 57.0277 7.5206 56.9253C7.38339 56.8147 7.30776 56.6532 7.29371 56.441C7.28027 56.2878 7.32433 56.1464 7.4259 56.0167C7.52027 55.8777 7.65116 55.7814 7.81859 55.7278C8.03906 55.6559 8.25117 55.5198 8.45491 55.3195C8.65975 55.1109 8.83745 54.8524 8.98801 54.5442C9.13858 54.2359 9.23743 53.904 9.28457 53.5484C9.3372 53.1515 9.32324 52.7794 9.24271 52.4322C9.16327 52.0768 9.02116 51.7804 8.81638 51.5431C8.6033 51.3047 8.32262 51.1625 7.97433 51.1166C7.53483 51.0586 7.11791 51.1803 6.72357 51.4817C6.33033 51.7748 6.04018 52.3087 5.8531 53.0834C5.61764 54.0956 5.20807 54.862 4.62438 55.3824C4.04069 55.9028 3.37568 56.1138 2.62935 56.0154C2.08205 55.9433 1.63795 55.7291 1.29705 55.3728C0.956161 55.0166 0.720739 54.5648 0.590788 54.0176C0.461934 53.4622 0.440264 52.862 0.52578 52.217C0.592657 51.7125 0.72125 51.2836 0.911559 50.93C1.10296 50.5682 1.34169 50.2632 1.62775 50.0148C1.9138 49.7665 2.24053 49.5613 2.60793 49.3994C2.80572 49.3077 2.98589 49.2852 3.14845 49.3319C3.30382 49.3692 3.41779 49.4641 3.49037 49.6167C3.56905 49.787 3.56731 49.9592 3.48514 50.1335C3.40297 50.3078 3.27708 50.43 3.10746 50.5002C2.84943 50.6008 2.62489 50.7352 2.43382 50.9036C2.24275 51.0719 2.08462 51.2782 1.95941 51.5225C1.82591 51.7658 1.73614 52.061 1.6901 52.4083C1.60067 53.0191 1.6488 53.5471 1.83446 53.9923C2.01184 54.4364 2.34515 54.6907 2.83441 54.7552C3.08319 54.788 3.3319 54.7576 3.58053 54.6642C3.82197 54.5614 4.0481 54.3514 4.2589 54.0343C4.47079 53.7088 4.65267 53.228 4.80453 52.5917C5.0345 51.6208 5.43859 50.8958 6.0168 50.4168C6.58781 49.9283 7.28379 49.7382 8.10476 49.8465C8.57743 49.9088 8.97476 50.0621 9.29673 50.3065C9.6198 50.5426 9.87965 50.8419 10.0763 51.2044C10.2657 51.5575 10.3905 51.9525 10.4507 52.3896C10.512 52.8183 10.513 53.256 10.4538 53.7025Z" fill="black"/>
<path d="M11.4855 45.745C11.3788 46.1482 11.1817 46.4846 10.8942 46.754C10.5986 47.0213 10.2483 47.2009 9.84333 47.2928C9.43838 47.3847 9.01349 47.3721 8.56865 47.2551L2.78163 45.733C2.60369 45.6862 2.47304 45.5914 2.38967 45.4487C2.30631 45.306 2.28809 45.146 2.33503 44.9685C2.38196 44.7911 2.47698 44.6608 2.62008 44.5777C2.76318 44.4946 2.9237 44.4764 3.10164 44.5232L8.88866 46.0453C9.21218 46.1304 9.5066 46.113 9.77191 45.993C10.0372 45.873 10.204 45.684 10.2723 45.4259L10.3811 45.0145C10.4195 44.8694 10.5081 44.7633 10.6469 44.6963C10.7879 44.6212 10.9474 44.6071 11.1253 44.6539C11.3032 44.7007 11.4307 44.8075 11.5077 44.9744C11.5868 45.1333 11.5986 45.3175 11.5431 45.5272L11.4855 45.745ZM5.42481 47.0234C5.38001 47.1928 5.29521 47.3172 5.17042 47.3965C5.04563 47.4758 4.91044 47.4963 4.76485 47.458C4.60309 47.4155 4.48755 47.329 4.41823 47.1986C4.34891 47.0682 4.33665 46.9184 4.38145 46.749L5.12068 43.9544C5.16548 43.785 5.25027 43.6607 5.37506 43.5814C5.49986 43.502 5.64313 43.4837 5.80489 43.5262C5.95048 43.5645 6.05793 43.6488 6.12726 43.7792C6.19658 43.9096 6.20884 44.0595 6.16404 44.2288L5.42481 47.0234Z" fill="black"/>
<path d="M12.8072 40.4909C12.5499 41.0431 12.1824 41.4753 11.7049 41.7874C11.2198 42.0961 10.6821 42.2701 10.092 42.3093C9.49774 42.3375 8.90099 42.2127 8.30173 41.935C7.70246 41.6573 7.22733 41.2716 6.87633 40.7778C6.52886 40.2765 6.32786 39.7281 6.27333 39.1326C6.21473 38.526 6.32291 37.9276 6.59787 37.3376C6.87282 36.7476 7.25991 36.2831 7.75913 35.9442C8.25077 35.6018 8.79899 35.4051 9.40379 35.3543C10.0121 35.2958 10.6159 35.4055 11.2152 35.6832L11.009 36.1257C11.6082 36.4034 12.0869 36.7815 12.4449 37.2602C12.7989 37.7277 13.014 38.2459 13.0902 38.8147C13.1589 39.3799 13.0645 39.9387 12.8072 40.4909ZM11.8889 39.7894C12.0687 39.4036 12.138 39.0173 12.097 38.6303C12.0483 38.2399 11.9052 37.8839 11.6677 37.5622C11.4226 37.2371 11.099 36.9814 10.697 36.7951C10.2874 36.6053 9.88272 36.5236 9.48304 36.5499C9.07578 36.5727 8.71062 36.6932 8.38756 36.9115C8.05692 37.1262 7.80171 37.4264 7.62193 37.8122C7.44568 38.1904 7.38011 38.5785 7.42523 38.9765C7.46628 39.3634 7.6076 39.7232 7.84918 40.0559C8.08671 40.3776 8.41028 40.6333 8.81991 40.8231C9.22195 41.0094 9.6266 41.0911 10.0339 41.0683C10.4371 41.0344 10.804 40.9101 11.1346 40.6954C11.4612 40.4696 11.7126 40.1676 11.8889 39.7894ZM14.0632 37.7065C13.9857 37.8729 13.8674 37.9883 13.7083 38.0525C13.5451 38.1057 13.3801 38.0936 13.2133 38.0163L11.4723 37.2096L10.3667 36.4351L11.2152 35.6832L13.7526 36.859C13.9195 36.9363 14.0334 37.0581 14.0943 37.2242C14.1511 37.3794 14.1408 37.5401 14.0632 37.7065Z" fill="black"/>
<path d="M11.4537 32.7244C11.0287 32.4582 10.7143 32.1184 10.5104 31.705C10.3039 31.2802 10.2127 30.829 10.2369 30.3516C10.261 29.8743 10.4066 29.4237 10.6735 28.9999C10.9405 28.5761 11.2093 28.3061 11.48 28.1901C11.7481 28.0625 11.9622 28.0833 12.1223 28.2525C12.2081 28.3358 12.2593 28.427 12.2759 28.5261C12.2899 28.6136 12.2795 28.7007 12.2447 28.7873C12.21 28.8738 12.153 28.9564 12.0739 29.0349C11.6971 29.4293 11.4342 29.8309 11.2852 30.24C11.1361 30.649 11.1012 31.026 11.1802 31.371C11.2636 31.709 11.4683 31.98 11.7941 32.1841L11.4537 32.7244ZM15.094 34.9899C14.9873 35.1594 14.8625 35.2635 14.7196 35.3021C14.5697 35.3362 14.4062 35.2978 14.2291 35.1869L9.47985 32.212C9.30985 32.1055 9.20773 31.9775 9.17349 31.828C9.13926 31.6785 9.17553 31.519 9.28232 31.3495C9.39355 31.1729 9.52191 31.0711 9.66738 31.044C9.81022 31.0054 9.97018 31.0416 10.1473 31.1525L14.8965 34.1274C15.0665 34.2339 15.1686 34.3619 15.2029 34.5114C15.2416 34.6538 15.2053 34.8133 15.094 34.9899Z" fill="black"/>
<path d="M19.4857 28.1973C19.221 28.5202 18.9018 28.7448 18.5281 28.8712C18.148 28.9922 17.7546 29.0109 17.3479 28.9271C16.9411 28.8434 16.5597 28.6564 16.2035 28.366L11.5697 24.5889C11.4272 24.4727 11.3477 24.3325 11.3311 24.1682C11.3146 24.0039 11.3645 23.8507 11.481 23.7086C11.5975 23.5665 11.7381 23.4872 11.9029 23.4707C12.0677 23.4542 12.2213 23.504 12.3638 23.6202L16.9976 27.3973C17.2566 27.6085 17.5318 27.7143 17.8231 27.7147C18.1145 27.7152 18.3448 27.6121 18.5142 27.4054L18.7842 27.0761C18.8795 26.9598 19.0043 26.8999 19.1585 26.8963C19.318 26.8863 19.4689 26.9393 19.6114 27.0555C19.7539 27.1716 19.8255 27.3215 19.8261 27.5052C19.8321 27.6824 19.7663 27.855 19.6286 28.0229L19.4857 28.1973ZM13.4387 26.8557C13.3276 26.9914 13.1987 27.0695 13.0522 27.0901C12.9056 27.1107 12.7741 27.0735 12.6575 26.9784C12.528 26.8729 12.4588 26.7464 12.4499 26.5991C12.441 26.4518 12.4921 26.3104 12.6033 26.1747L14.4376 23.937C14.5488 23.8014 14.6777 23.7233 14.8242 23.7027C14.9707 23.6821 15.1088 23.7246 15.2383 23.8302C15.3549 23.9252 15.4176 24.0463 15.4265 24.1937C15.4354 24.341 15.3843 24.4824 15.2731 24.618L13.4387 26.8557Z" fill="black"/>
<path d="M26.0908 24.8438C26.0249 24.8952 25.9304 24.9372 25.8072 24.9697C25.4142 25.0644 25.1729 24.9191 25.0831 24.5338L22.772 15.3924C22.6873 15.0136 22.833 14.7729 23.2091 14.6703C23.6035 14.5639 23.8482 14.7066 23.9432 15.0985L26.2366 24.2377C26.3173 24.5031 26.2687 24.7051 26.0908 24.8438ZM25.2319 21.3521C25.148 21.5023 25.0345 21.6014 24.8916 21.6493C24.7501 21.6856 24.5975 21.6669 24.4337 21.5935L18.808 19.0713C18.6442 18.9979 18.5416 18.8873 18.5001 18.7396C18.4601 18.5803 18.482 18.4255 18.566 18.2753C18.65 18.1251 18.766 18.0293 18.9141 17.9879C19.057 17.94 19.2071 17.9553 19.3643 18.0339L24.8911 20.6332C25.0549 20.7066 25.1733 20.8102 25.2463 20.9439C25.3207 21.0659 25.3159 21.202 25.2319 21.3521Z" fill="black"/>
<path d="M30.9772 17.1932C30.3788 17.5099 29.7818 17.6606 29.1865 17.6451C28.5872 17.6223 28.0331 17.4528 27.524 17.1368C27.0183 16.8095 26.6067 16.3474 26.2891 15.7506C25.9676 15.1464 25.8146 14.5475 25.8301 13.9538C25.849 13.3489 26.019 12.7963 26.3398 12.296C26.6568 11.7883 27.1145 11.3761 27.713 11.0594C28.3041 10.7466 28.8993 10.6017 29.4985 10.6245C30.0939 10.6399 30.6444 10.8113 31.15 11.1387C31.6591 11.4547 32.0744 11.9148 32.3959 12.519C32.7135 13.1158 32.8665 13.7147 32.855 14.3157C32.8395 14.9094 32.6732 15.4601 32.3563 15.9677C32.0354 16.468 31.5757 16.8765 30.9772 17.1932ZM30.4479 16.1986C30.8321 15.9952 31.125 15.727 31.3264 15.3937C31.5278 15.0605 31.6275 14.6962 31.6254 14.3007C31.6306 13.9013 31.5254 13.499 31.3098 13.0938C31.0941 12.6885 30.819 12.3761 30.4844 12.1566C30.1532 11.9258 29.7928 11.8002 29.4031 11.7798C29.0135 11.7593 28.6265 11.8508 28.2423 12.0541C27.8581 12.2574 27.5653 12.5257 27.3638 12.8589C27.1624 13.1922 27.061 13.5621 27.0597 13.9689C27.0544 14.3683 27.1596 14.7706 27.3753 15.1758C27.5909 15.5811 27.8661 15.8934 28.2007 16.113C28.5353 16.3325 28.8974 16.4525 29.2871 16.4729C29.6768 16.4933 30.0637 16.4019 30.4479 16.1986Z" fill="black"/>
<path d="M37.777 13.4656C37.2279 13.6427 36.6971 13.6867 36.1847 13.5978C35.6777 13.4983 35.2235 13.2634 34.8221 12.8932C34.4287 12.5204 34.1251 12.0046 33.9115 11.3459L32.9616 8.41738C32.905 8.24278 32.9144 8.08196 32.9898 7.93492C33.0705 7.77737 33.1985 7.67036 33.3736 7.61389C33.5487 7.55742 33.7112 7.57074 33.8613 7.65385C34.0167 7.72646 34.1227 7.85007 34.1793 8.02467L35.1292 10.9532C35.2733 11.3976 35.4766 11.7397 35.7389 11.9794C35.9987 12.2113 36.2951 12.3524 36.6279 12.4028C36.9582 12.4453 37.3024 12.4088 37.6606 12.2933C38.0028 12.183 38.2833 12.018 38.5022 11.7984C38.7291 11.5762 38.8847 11.3243 38.9693 11.0428C39.0538 10.7613 39.0497 10.4777 38.9571 10.192L39.7092 9.94948C39.8688 10.4415 39.8896 10.9258 39.7715 11.4021C39.6615 11.876 39.4329 12.296 39.0857 12.6622C38.7465 13.0258 38.3103 13.2936 37.777 13.4656ZM40.3961 12.5552C40.221 12.6116 40.0557 12.6036 39.9003 12.5309C39.7502 12.4478 39.6469 12.319 39.5903 12.1444L37.8682 6.83496C37.809 6.65242 37.8171 6.48763 37.8925 6.34059C37.9759 6.19098 38.1051 6.08794 38.2802 6.03147C38.4632 5.97243 38.6285 5.9805 38.776 6.05568C38.9234 6.13085 39.0267 6.25971 39.0859 6.44224L40.808 11.7517C40.8646 11.9263 40.8565 12.0911 40.7837 12.246C40.7083 12.3931 40.5791 12.4961 40.3961 12.5552Z" fill="black"/>
<path d="M42.5423 7.18168C42.4486 6.69002 42.4842 6.22903 42.6491 5.79873C42.8206 5.35867 43.09 4.98498 43.4571 4.67766C43.8243 4.37034 44.2544 4.16995 44.7474 4.07649C45.2405 3.98304 45.6218 3.99567 45.8913 4.11439C46.1675 4.22335 46.298 4.39391 46.2826 4.62606C46.2798 4.74546 46.2477 4.84494 46.1862 4.92451C46.1314 4.99434 46.0604 5.04601 45.9731 5.07953C45.8858 5.11305 45.7865 5.12765 45.6749 5.12331C45.1287 5.11647 44.6546 5.19784 44.2527 5.36741C43.8508 5.53699 43.55 5.76805 43.3503 6.06061C43.1589 6.35161 43.0991 6.68559 43.171 7.06253L42.5423 7.18168ZM43.3559 11.3831C43.1587 11.4204 42.9973 11.4001 42.8717 11.322C42.7446 11.2357 42.6615 11.0902 42.6225 10.8853L41.5752 5.39097C41.5377 5.1943 41.5622 5.03258 41.6487 4.90581C41.7352 4.77903 41.8771 4.69695 42.0743 4.65957C42.2798 4.62063 42.4419 4.64508 42.5609 4.73292C42.6864 4.811 42.7687 4.95247 42.8078 5.15733L43.8551 10.6517C43.8926 10.8483 43.8681 11.0101 43.7815 11.1368C43.7032 11.262 43.5614 11.3441 43.3559 11.3831Z" fill="black"/>
<path d="M54.6788 9.67604C54.0937 9.65359 53.5538 9.54522 53.059 9.35095C52.573 9.14866 52.1973 8.90469 51.9321 8.61905C51.8119 8.48088 51.7633 8.32877 51.7865 8.16271C51.8183 7.98864 51.9074 7.85016 52.0536 7.74725C52.2259 7.62031 52.391 7.57239 52.5489 7.60348C52.7154 7.62657 52.8548 7.70287 52.967 7.83238C53.1029 7.9962 53.3228 8.15489 53.6266 8.30845C53.9391 8.45399 54.2876 8.53414 54.6721 8.5489C55.1569 8.5675 55.5277 8.50243 55.7846 8.35369C56.0498 8.20527 56.1914 8.00619 56.2094 7.75646C56.2274 7.50674 56.1146 7.28538 55.8709 7.09239C55.6356 6.89972 55.1942 6.73253 54.5467 6.59082C53.709 6.39173 53.1043 6.11811 52.7326 5.76996C52.3694 5.42213 52.1971 5.0065 52.2157 4.52308C52.2321 4.09799 52.371 3.75274 52.6324 3.4873C52.8941 3.21354 53.2239 3.01751 53.6219 2.89923C54.0202 2.77261 54.4325 2.71748 54.8588 2.73383C55.4105 2.755 55.8961 2.86128 56.3156 3.05267C56.7351 3.24406 57.0643 3.49876 57.3032 3.81678C57.4151 3.95463 57.4639 4.09841 57.4498 4.24811C57.4359 4.38949 57.3602 4.50762 57.2226 4.60251C57.0854 4.68906 56.9254 4.71214 56.7428 4.67174C56.5602 4.63135 56.4085 4.5504 56.2876 4.4289C56.0864 4.22084 55.866 4.07465 55.6265 3.99034C55.387 3.90602 55.1084 3.85777 54.7908 3.84559C54.423 3.83147 54.1072 3.88196 53.8432 3.99704C53.5876 4.11244 53.4552 4.291 53.4459 4.53271C53.4401 4.68274 53.4724 4.82171 53.5428 4.94962C53.6219 5.06952 53.7765 5.18397 54.0067 5.29297C54.2372 5.39363 54.5763 5.49847 55.0242 5.60747C55.6462 5.75655 56.1333 5.93383 56.4853 6.13933C56.8457 6.34514 57.1003 6.58029 57.2491 6.84477C57.3983 7.10091 57.4664 7.39568 57.4536 7.72908C57.4388 8.11248 57.3209 8.45437 57.1001 8.75475C56.8876 9.05544 56.5772 9.28978 56.1689 9.45775C55.769 9.62605 55.2723 9.69881 54.6788 9.67604Z" fill="black"/>
<path d="M61.8307 9.98615C61.4179 9.91923 61.0631 9.7561 60.7664 9.49674C60.4711 9.22915 60.258 8.89884 60.1271 8.50581C59.9963 8.11277 59.9677 7.68985 60.0416 7.23703L61.0018 1.34628C61.0313 1.16515 61.1133 1.02632 61.2476 0.929798C61.382 0.833271 61.54 0.799728 61.7217 0.829169C61.9033 0.858611 62.0425 0.940331 62.1393 1.07433C62.2361 1.20833 62.2698 1.36589 62.2402 1.54702L61.28 7.43777C61.2263 7.76709 61.2722 8.05762 61.4176 8.30935C61.563 8.56108 61.7678 8.70836 62.032 8.75119L62.4531 8.81944C62.6017 8.84353 62.7161 8.92123 62.7964 9.05255C62.885 9.18521 62.9145 9.34211 62.885 9.52323C62.8554 9.70436 62.7611 9.84118 62.602 9.93369C62.4511 10.0275 62.2683 10.0571 62.0536 10.0223L61.8307 9.98615ZM59.9691 4.09434C59.7957 4.06624 59.6634 3.99409 59.5722 3.8779C59.4809 3.7617 59.4474 3.62951 59.4716 3.48131C59.4984 3.31665 59.5735 3.19362 59.697 3.11222C59.8204 3.03082 59.9688 3.00418 60.1422 3.03228L63.003 3.49598C63.1764 3.52409 63.3087 3.59624 63.4 3.71243C63.4912 3.82862 63.5234 3.96905 63.4965 4.13371C63.4724 4.28191 63.3986 4.3967 63.2752 4.4781C63.1517 4.5595 63.0033 4.58615 62.8299 4.55805L59.9691 4.09434Z" fill="black"/>
<path d="M67.3689 10.8401C66.7291 10.6177 66.2125 10.2836 65.8191 9.83774C65.4285 9.38399 65.1763 8.86354 65.0626 8.27637C64.9596 7.68408 65.0196 7.06894 65.2426 6.43094C65.4683 5.78507 65.8047 5.266 66.2519 4.87374C66.7096 4.47634 67.2316 4.2249 67.8176 4.11941C68.4065 4.00605 69.0208 4.06054 69.6606 4.28289C70.2925 4.50249 70.8037 4.83917 71.1944 5.29291C71.5877 5.73878 71.8359 6.25786 71.939 6.85015C72.0526 7.43732 71.9966 8.05383 71.7709 8.6997C71.5479 9.3377 71.2115 9.85677 70.7616 10.2569C70.3145 10.6492 69.7965 10.902 69.2077 11.0154C68.6216 11.1208 68.0087 11.0624 67.3689 10.8401ZM67.7405 9.77673C68.1512 9.91947 68.5476 9.95123 68.9296 9.87199C69.3116 9.79276 69.6473 9.61793 69.9367 9.34751C70.234 9.07983 70.4584 8.72939 70.6098 8.29619C70.7612 7.86298 70.8039 7.4494 70.7378 7.05545C70.6824 6.65638 70.5298 6.30742 70.2799 6.00858C70.03 5.70974 69.6997 5.48896 69.2889 5.34621C68.8782 5.20347 68.4818 5.17172 68.0998 5.25095C67.7178 5.33019 67.3768 5.50758 67.0767 5.78314C66.7794 6.05081 66.5551 6.40125 66.4037 6.83446C66.2523 7.26767 66.2096 7.68124 66.2757 8.07519C66.3417 8.46914 66.4997 8.81553 66.7496 9.11437C66.9994 9.4132 67.3298 9.63399 67.7405 9.77673Z" fill="black"/>
<path d="M74.8763 8.68712C75.1001 8.23912 75.4081 7.89357 75.8005 7.65047C76.2041 7.40362 76.6453 7.26861 77.1241 7.24545C77.6029 7.2223 78.0669 7.32226 78.5162 7.54535C78.9654 7.76843 79.2613 8.00856 79.4039 8.26571C79.5577 8.51912 79.5581 8.73361 79.405 8.90918C79.3303 9.00256 79.2444 9.06238 79.1471 9.08865C79.0611 9.11117 78.9732 9.10945 78.8834 9.08348C78.7936 9.05752 78.7056 9.00917 78.6194 8.93843C78.1887 8.60341 77.7619 8.38215 77.339 8.27466C76.9161 8.16717 76.5364 8.16965 76.1999 8.2821C75.8709 8.39827 75.6207 8.62809 75.4492 8.97155L74.8763 8.68712ZM72.9748 12.523C72.7951 12.4338 72.6789 12.3202 72.6263 12.1823C72.5775 12.0369 72.5996 11.8709 72.6929 11.6842L75.1929 6.67786C75.2824 6.49866 75.4 6.3847 75.5459 6.33597C75.6917 6.28724 75.8544 6.30749 76.0341 6.39672C76.2213 6.48968 76.3356 6.60699 76.377 6.74868C76.4296 6.88661 76.4093 7.04891 76.3161 7.23557L73.816 12.2419C73.7265 12.4211 73.6089 12.5351 73.4631 12.5838C73.3247 12.6363 73.162 12.616 72.9748 12.523Z" fill="black"/>
<path d="M77.2874 17.7598C77.219 17.7118 77.1513 17.6338 77.0843 17.5257C76.8794 17.1782 76.9488 16.9057 77.2925 16.7081L85.3945 11.8498C85.7334 11.6591 86.0067 11.7283 86.2144 12.0574C86.431 12.4029 86.365 12.6778 86.0165 12.8822L77.9114 17.7231C77.6802 17.8771 77.4722 17.8893 77.2874 17.7598ZM80.389 15.9269C80.2205 15.8904 80.0925 15.8108 80.0051 15.6884C79.9292 15.5638 79.9028 15.4128 79.9258 15.2352L80.7136 9.13486C80.7365 8.95724 80.8129 8.82721 80.9425 8.74477C81.0839 8.66031 81.2388 8.63635 81.4073 8.67289C81.5758 8.70943 81.7014 8.79236 81.784 8.92166C81.8715 9.04415 81.9004 9.1918 81.8706 9.36463L80.9801 15.393C80.9571 15.5706 80.8921 15.7136 80.785 15.8221C80.6895 15.9285 80.5575 15.9634 80.389 15.9269Z" fill="black"/>
<path d="M88.7531 18.8173C88.6331 18.6782 88.5765 18.5232 88.5834 18.3522C88.6021 18.182 88.6811 18.0371 88.8206 17.9174L93.3849 13.9992C93.5307 13.874 93.6861 13.8176 93.8513 13.8299C94.0219 13.8486 94.1672 13.9274 94.2873 14.0665C94.4128 14.2119 94.4694 14.3669 94.4571 14.5316C94.4447 14.6963 94.3656 14.8412 94.2198 14.9664L89.6556 18.8846C89.5161 19.0043 89.3606 19.0607 89.1892 19.0538C89.024 19.0415 88.8787 18.9627 88.7531 18.8173ZM90.2158 24.347C90.0957 24.2079 90.0392 24.0529 90.046 23.8819C90.0647 23.7117 90.1438 23.5668 90.2833 23.4471L92.6225 21.439C92.9838 21.1288 93.2213 20.8094 93.3349 20.4807C93.4485 20.1521 93.4609 19.8277 93.3722 19.5076C93.2953 19.1884 93.1314 18.8834 92.8803 18.5927C92.6511 18.3272 92.3899 18.1332 92.0966 18.0108C91.8032 17.8884 91.5101 17.8429 91.2171 17.8743C90.9305 17.9002 90.6699 18.0139 90.4353 18.2152L89.9196 17.6178C90.319 17.275 90.7558 17.0651 91.2302 16.9881C91.7163 16.9119 92.1959 16.9625 92.669 17.1397C93.1421 17.3169 93.5587 17.6141 93.9189 18.0313C94.2954 18.4675 94.536 18.9379 94.6405 19.4425C94.7568 19.948 94.7189 20.4538 94.5267 20.96C94.34 21.4724 93.9836 21.9545 93.4574 22.4062L91.1182 24.4143C90.9788 24.534 90.8206 24.5872 90.6436 24.5741C90.4785 24.5617 90.3359 24.486 90.2158 24.347ZM86.8514 20.4499C86.7313 20.3108 86.6747 20.1558 86.6816 19.9847C86.7003 19.8146 86.7794 19.6697 86.9188 19.55L91.1598 15.9093C91.3056 15.7842 91.4611 15.7277 91.6262 15.74C91.7968 15.7587 91.9422 15.8375 92.0622 15.9766C92.1877 16.122 92.2443 16.277 92.232 16.4417C92.2196 16.6064 92.1406 16.7513 91.9948 16.8765L87.7538 20.5171C87.6143 20.6369 87.4589 20.6933 87.2874 20.6864C87.1222 20.6741 86.9769 20.5953 86.8514 20.4499Z" fill="black"/>
<path d="M93.8968 28.6491C93.5406 28.0548 93.3487 27.4501 93.321 26.835C93.3048 26.2227 93.4398 25.6514 93.7262 25.1212C94.024 24.5938 94.4637 24.1568 95.0452 23.8102C95.634 23.4592 96.2239 23.2728 96.8149 23.2509C97.4175 23.2318 97.9753 23.3658 98.4884 23.6527C99.0087 23.9353 99.4383 24.3595 99.7774 24.9251C100.112 25.4835 100.274 26.0381 100.263 26.5888C100.259 27.1352 100.101 27.6428 99.7872 28.1115C99.4852 28.5831 99.0506 28.9879 98.4834 29.326C98.347 29.4073 98.2042 29.4293 98.0551 29.3918C97.9131 29.3501 97.7992 29.2577 97.7134 29.1145L95.1189 24.7866L95.9805 24.273L98.5556 28.5687L97.9901 28.3081C98.3448 28.087 98.6214 27.8249 98.8199 27.522C99.0255 27.2148 99.1358 26.8867 99.1507 26.5376C99.1656 26.1886 99.0658 25.8351 98.8512 25.4772C98.6066 25.0691 98.3065 24.7718 97.9511 24.5852C97.5999 24.4058 97.2213 24.3351 96.8153 24.3731C96.4164 24.4068 96.0195 24.5413 95.6246 24.7767C95.2298 25.0121 94.9316 25.3113 94.7302 25.6743C94.5287 26.0373 94.4327 26.4298 94.4421 26.8518C94.4514 27.2738 94.5784 27.6889 94.823 28.097C94.9561 28.3189 95.1308 28.5209 95.3471 28.7029C95.5749 28.8878 95.7855 29.0198 95.9791 29.0988C96.1224 29.1591 96.2306 29.2501 96.3035 29.3718C96.388 29.4964 96.4186 29.6288 96.3954 29.7689C96.3607 29.9548 96.2808 30.0899 96.1559 30.1741C96.031 30.2583 95.8853 30.2673 95.719 30.2013C95.3793 30.0734 95.0389 29.8633 94.698 29.5709C94.3613 29.2857 94.0943 28.9784 93.8968 28.6491Z" fill="black"/>
<path d="M100.762 31.3331C101.221 31.1324 101.68 31.0643 102.137 31.1287C102.606 31.1973 103.031 31.3759 103.413 31.6643C103.796 31.9527 104.088 32.3261 104.289 32.7846C104.49 33.2431 104.563 33.6165 104.507 33.905C104.462 34.1978 104.324 34.3626 104.094 34.3994C103.976 34.4233 103.872 34.4143 103.78 34.3723C103.7 34.3345 103.634 34.277 103.581 34.1996C103.529 34.1223 103.493 34.0289 103.472 33.9196C103.357 33.387 103.172 32.9443 102.917 32.5914C102.661 32.2385 102.368 31.9976 102.038 31.8687C101.711 31.7475 101.371 31.7638 101.018 31.9177L100.762 31.3331ZM96.8357 33.0604C96.7552 32.8771 96.7391 32.7156 96.7875 32.5762C96.8435 32.4333 96.9673 32.3201 97.1588 32.2365L102.297 29.9938C102.481 29.9135 102.644 29.9013 102.787 29.9572C102.931 30.013 103.042 30.1327 103.123 30.316C103.207 30.5071 103.219 30.6702 103.16 30.8054C103.111 30.9448 102.991 31.0564 102.8 31.14L97.662 33.3827C97.4781 33.4629 97.3145 33.4752 97.1713 33.4193C97.0314 33.3711 96.9195 33.2515 96.8357 33.0604Z" fill="black"/>
<path d="M100.223 40.9314C100.062 40.2581 100.06 39.6238 100.218 39.0286C100.386 38.4395 100.686 37.9347 101.119 37.5141C101.561 37.0997 102.112 36.8138 102.771 36.6565C103.438 36.4972 104.056 36.4953 104.627 36.6507C105.208 36.8122 105.7 37.1064 106.103 37.5332C106.515 37.9581 106.798 38.491 106.952 39.1318C107.104 39.7645 107.092 40.342 106.916 40.8643C106.749 41.3846 106.445 41.8216 106.005 42.1753C105.576 42.5352 105.039 42.7919 104.397 42.9453C104.242 42.9822 104.099 42.9606 103.968 42.8804C103.845 42.7982 103.764 42.676 103.725 42.5138L102.548 37.6102L103.524 37.3771L104.693 42.2442L104.231 41.8269C104.636 41.7217 104.979 41.5541 105.259 41.3243C105.547 41.0924 105.751 40.8122 105.87 40.4837C105.989 40.1551 106 39.788 105.902 39.3824C105.791 38.92 105.594 38.5468 105.311 38.2628C105.03 37.9869 104.689 37.8065 104.291 37.7216C103.9 37.6348 103.481 37.6448 103.033 37.7516C102.586 37.8584 102.212 38.055 101.911 38.3413C101.61 38.6276 101.4 38.9735 101.283 39.379C101.165 39.7845 101.162 40.2184 101.273 40.6808C101.333 40.9322 101.439 41.1771 101.591 41.4153C101.753 41.6597 101.914 41.8484 102.075 41.9815C102.194 42.0818 102.27 42.2009 102.303 42.3388C102.346 42.4829 102.336 42.6184 102.272 42.7452C102.183 42.9122 102.066 43.0173 101.921 43.0603C101.777 43.1034 101.635 43.0686 101.496 42.956C101.211 42.7326 100.949 42.4306 100.711 42.0499C100.475 41.6773 100.313 41.3045 100.223 40.9314Z" fill="black"/>
<path d="M103.817 45.6235C103.788 45.4423 103.825 45.2801 103.929 45.1368C104.043 45.0004 104.183 44.9191 104.348 44.8928L110.456 43.9199C110.638 43.8909 110.8 43.9242 110.942 44.0198C111.086 44.1236 111.172 44.2661 111.201 44.4474C111.23 44.6286 111.192 44.7867 111.087 44.9217C110.983 45.065 110.84 45.1511 110.658 45.1801L104.55 46.153C104.376 46.1806 104.217 46.1384 104.072 46.0264C103.928 45.9225 103.843 45.7883 103.817 45.6235ZM101.525 45.9886C101.488 45.758 101.538 45.543 101.676 45.3438C101.814 45.1527 102.004 45.0381 102.243 45C102.483 44.9618 102.698 45.0119 102.89 45.1504C103.091 45.2957 103.21 45.4837 103.247 45.7143C103.285 45.9532 103.231 46.1688 103.084 46.3612C102.945 46.5522 102.756 46.6668 102.516 46.705C102.277 46.7431 102.06 46.6889 101.867 46.5422C101.676 46.4038 101.562 46.2192 101.525 45.9886Z" fill="black"/>
</svg>
