<svg width="20" height="20" viewBox="0 0 20 20" fill="none" xmlns="http://www.w3.org/2000/svg">
  <path d="M4.25 14H5.75V13.75C5.75 12.5667 6.1625 11.5625 6.9875 10.7375C7.8125 9.9125 8.81667 9.5 10 9.5C11.1833 9.5 12.1875 9.9125 13.0125 10.7375C13.8375 11.5625 14.25 12.5667 14.25 13.75V14H15.75V13.75C15.75 12.15 15.1917 10.7917 14.075 9.675C12.9583 8.55833 11.6 8 10 8C8.4 8 7.04167 8.55833 5.925 9.675C4.80833 10.7917 4.25 12.15 4.25 13.75V14ZM5.1 7.25C5.78333 7.15 6.50417 6.88333 7.2625 6.45C8.02083 6.01667 8.625 5.525 9.075 4.975L7.925 4.025C7.59167 4.425 7.12917 4.79167 6.5375 5.125C5.94583 5.45833 5.4 5.66667 4.9 5.75L5.1 7.25ZM14.9 7.25L15.1 5.75C14.6 5.66667 14.0542 5.45833 13.4625 5.125C12.8708 4.79167 12.4083 4.425 12.075 4.025L10.925 4.975C11.375 5.525 11.9792 6.01667 12.7375 6.45C13.4958 6.88333 14.2167 7.15 14.9 7.25ZM10 20C8.61667 20 7.31667 19.7375 6.1 19.2125C4.88333 18.6875 3.825 17.975 2.925 17.075C2.025 16.175 1.3125 15.1167 0.7875 13.9C0.2625 12.6833 0 11.3833 0 10C0 8.61667 0.2625 7.31667 0.7875 6.1C1.3125 4.88333 2.025 3.825 2.925 2.925C3.825 2.025 4.88333 1.3125 6.1 0.7875C7.31667 0.2625 8.61667 0 10 0C11.3833 0 12.6833 0.2625 13.9 0.7875C15.1167 1.3125 16.175 2.025 17.075 2.925C17.975 3.825 18.6875 4.88333 19.2125 6.1C19.7375 7.31667 20 8.61667 20 10C20 11.3833 19.7375 12.6833 19.2125 13.9C18.6875 15.1167 17.975 16.175 17.075 17.075C16.175 17.975 15.1167 18.6875 13.9 19.2125C12.6833 19.7375 11.3833 20 10 20ZM10 18.3333C12.3263 18.3333 14.2968 17.526 15.9115 15.9115C17.526 14.2968 18.3333 12.3263 18.3333 10C18.3333 7.67367 17.526 5.70317 15.9115 4.0885C14.2968 2.474 12.3263 1.66675 10 1.66675C7.67367 1.66675 5.70317 2.474 4.0885 4.0885C2.474 5.70317 1.66675 7.67367 1.66675 10C1.66675 12.3263 2.474 14.2968 4.0885 15.9115C5.70317 17.526 7.67367 18.3333 10 18.3333Z" fill="#fff"/>
</svg>
