<svg width="216" height="87" viewBox="0 0 216 87" fill="none" xmlns="http://www.w3.org/2000/svg">
<path d="M9.76139 57.6082V87.0002H0V57.6082C0 49.5091 2.86334 42.5857 8.59002 36.8379C14.3167 31.0901 21.2147 28.2163 29.2842 28.2163C37.3536 28.2163 44.2516 31.0901 49.9783 36.8379C51.41 38.2748 52.6464 39.7771 53.6876 41.3447C54.7288 39.7771 55.9653 38.2748 57.397 36.8379C63.1236 31.0901 70.0217 28.2163 78.0911 28.2163C86.1605 28.2163 93.0586 31.0901 98.7852 36.8379C104.512 42.5857 107.375 49.5091 107.375 57.6082V87.0002H97.6139V57.6082C97.6139 52.187 95.6941 47.5823 91.8547 43.794C88.0803 39.9404 83.4924 38.0136 78.0911 38.0136C72.6898 38.0136 68.0694 39.9404 64.2299 43.794C60.4555 47.5823 58.5683 52.187 58.5683 57.6082V87.0002H48.8069V57.6082C48.8069 52.187 46.8872 47.5823 43.0477 43.794C39.2733 39.9404 34.6855 38.0136 29.2842 38.0136C23.8829 38.0136 19.2625 39.9404 15.423 43.794C11.6486 47.5823 9.76139 52.187 9.76139 57.6082Z" fill="black"/>
<path d="M119.948 60.3201V87.0002H110.187V60.3201H119.948ZM110.187 46.1493V36.352H119.948V46.1493H110.187Z" fill="black"/>
<path d="M139.486 48.2812H159.009V58.0785H139.486V87.0002H129.724V58.0785H110.202V48.2812H129.724V29.3919C129.724 21.2928 132.588 14.3694 138.314 8.62164C144.041 2.87388 150.939 0 159.009 0C167.078 0 173.976 2.87388 179.703 8.62164C185.429 14.3694 188.293 21.2928 188.293 29.3919H178.531C178.531 23.9708 176.612 19.366 172.772 15.5777C168.998 11.7241 164.41 9.79732 159.009 9.79732C153.607 9.79732 148.987 11.7241 145.147 15.5777C141.373 19.366 139.486 23.9708 139.486 29.3919V48.2812Z" fill="black"/>
<path d="M186.716 77.2028C192.117 77.2028 196.705 75.3087 200.479 71.5204C204.319 67.6668 206.239 63.0294 206.239 57.6082C206.239 52.187 204.319 47.5823 200.479 43.794C196.705 39.9404 192.117 38.0136 186.716 38.0136C181.315 38.0136 176.694 39.9404 172.855 43.794C169.08 47.5823 167.193 52.187 167.193 57.6082C167.193 63.0294 169.08 67.6668 172.855 71.5204C176.694 75.3087 181.315 77.2028 186.716 77.2028ZM206.239 79.4562C200.772 84.4855 194.265 87.0002 186.716 87.0002C178.646 87.0002 171.748 84.1263 166.022 78.3785C160.295 72.6308 157.432 65.7073 157.432 57.6082C157.432 49.5091 160.295 42.5857 166.022 36.8379C171.748 31.0901 178.646 28.2163 186.716 28.2163C194.785 28.2163 201.683 31.0901 207.41 36.8379C213.137 42.5857 216 49.5091 216 57.6082V87.0002H206.239V79.4562Z" fill="black"/>
</svg>
